<svg width="50" height="47" viewBox="0 0 50 47" fill="none" xmlns="http://www.w3.org/2000/svg">
<path d="M40.8725 38.0029C44.1918 34.0865 46.1923 29.0259 46.1923 23.5C46.1923 11.0736 36.0757 1 23.5962 1C11.1166 1 1 11.0736 1 23.5C1 35.9264 11.1166 46 23.5962 46C26.8578 46 29.958 45.3119 32.7583 44.0735C38.4716 45.9907 44.7244 45.7116 48 45.1L40.8725 38.0029Z" fill="white" stroke="#3F3D56"/>
<path d="M30.9024 20.5137C26.4644 20.4675 22.027 20.3881 17.5892 20.3279C16.1097 20.3078 14.6302 20.2901 13.1507 20.275C11.8759 20.2617 11.8726 18.2794 13.1507 18.2927C17.5887 18.3389 22.0261 18.4183 26.4639 18.4785C27.9434 18.4986 29.4229 18.5163 30.9024 18.5314C32.1772 18.5447 32.1805 20.527 30.9024 20.5137V20.5137Z" fill="#6C63FF"/>
<path d="M35.7643 25.1391L17.8277 24.9532L12.7265 24.9004C11.4517 24.8872 11.4484 22.9048 12.7265 22.9181L30.6631 23.1039L35.7643 23.1568C37.0392 23.17 37.0424 25.1523 35.7643 25.1391Z" fill="#6C63FF"/>
<path d="M35.7643 29.7644L17.8277 29.5786L12.7265 29.5257C11.4517 29.5125 11.4484 27.5302 12.7265 27.5434L30.6631 27.7293L35.7643 27.7821C37.0392 27.7953 37.0424 29.7777 35.7643 29.7644Z" fill="#6C63FF"/>
</svg>
