<svg width="214" height="60" viewBox="0 0 214 60" fill="none" xmlns="http://www.w3.org/2000/svg">
<path d="M37.814 45.265C42.2292 41.2414 45 35.4443 45 29C45 16.8497 35.1503 7 23 7C10.8497 7 1 16.8497 1 29C1 41.1503 10.8497 51 23 51C26.7887 51 30.3537 50.0423 33.4661 48.3558C36.6374 50.617 40.3247 50.1118 41.8158 49.5526L37.814 45.265Z" fill="white" stroke="#3F3D56" stroke-width="2"/>
<path d="M29.9024 25.5137C25.4644 25.4675 21.027 25.3881 16.5891 25.3279C15.1097 25.3078 13.6302 25.2901 12.1507 25.275C10.8759 25.2617 10.8726 23.2794 12.1507 23.2927C16.5887 23.3389 21.0261 23.4183 25.4639 23.4785C26.9434 23.4986 28.4229 23.5163 29.9024 23.5314C31.1772 23.5447 31.1805 25.527 29.9024 25.5137V25.5137Z" fill="#6C63FF"/>
<path d="M34.7643 30.1391L16.8277 29.9532L11.7265 29.9004C10.4517 29.8872 10.4484 27.9048 11.7265 27.9181L29.6631 28.1039L34.7643 28.1568C36.0392 28.17 36.0424 30.1523 34.7643 30.1391Z" fill="#6C63FF"/>
<path d="M34.7643 34.7644L16.8277 34.5786L11.7265 34.5257C10.4517 34.5125 10.4484 32.5302 11.7265 32.5434L29.6631 32.7293L34.7643 32.7821C36.0392 32.7953 36.0424 34.7777 34.7643 34.7644Z" fill="#6C63FF"/>
<path d="M68.8642 47V13.5455H83.3045C85.7874 13.5455 87.96 14.0355 89.8222 15.0156C91.6845 15.9957 93.1329 17.3733 94.1674 19.1484C95.202 20.9235 95.7193 22.9981 95.7193 25.3722C95.7193 27.768 95.1856 29.8426 94.1184 31.5959C93.0621 33.3492 91.5756 34.6996 89.6589 35.647C87.7531 36.5945 85.5261 37.0682 82.9778 37.0682H74.3528V30.0114H81.1482C82.2155 30.0114 83.1248 29.8262 83.8762 29.456C84.6385 29.0748 85.2212 28.5357 85.6241 27.8388C86.0379 27.1418 86.2448 26.3196 86.2448 25.3722C86.2448 24.4138 86.0379 23.5971 85.6241 22.9219C85.2212 22.2358 84.6385 21.7131 83.8762 21.3537C83.1248 20.9834 82.2155 20.7983 81.1482 20.7983H77.9465V47H68.8642ZM110.731 47.4574C108.009 47.4574 105.678 46.9183 103.74 45.8402C101.801 44.7512 100.315 43.2375 99.2803 41.299C98.2458 39.3497 97.7285 37.09 97.7285 34.5199C97.7285 31.9498 98.2458 29.6955 99.2803 27.7571C100.315 25.8078 101.801 24.294 103.74 23.2159C105.678 22.1269 108.009 21.5824 110.731 21.5824C113.454 21.5824 115.784 22.1269 117.723 23.2159C119.661 24.294 121.148 25.8078 122.182 27.7571C123.217 29.6955 123.734 31.9498 123.734 34.5199C123.734 37.09 123.217 39.3497 122.182 41.299C121.148 43.2375 119.661 44.7512 117.723 45.8402C115.784 46.9183 113.454 47.4574 110.731 47.4574ZM110.797 40.7926C111.559 40.7926 112.218 40.5367 112.773 40.0249C113.329 39.513 113.759 38.7834 114.064 37.8359C114.369 36.8885 114.521 35.7614 114.521 34.4545C114.521 33.1368 114.369 32.0097 114.064 31.0732C113.759 30.1257 113.329 29.3961 112.773 28.8842C112.218 28.3724 111.559 28.1165 110.797 28.1165C109.991 28.1165 109.299 28.3724 108.722 28.8842C108.145 29.3961 107.704 30.1257 107.399 31.0732C107.094 32.0097 106.942 33.1368 106.942 34.4545C106.942 35.7614 107.094 36.8885 107.399 37.8359C107.704 38.7834 108.145 39.513 108.722 40.0249C109.299 40.5367 109.991 40.7926 110.797 40.7926ZM150.328 30.0767H142.03C141.986 29.5649 141.806 29.1238 141.491 28.7536C141.175 28.3833 140.766 28.1001 140.265 27.9041C139.775 27.6972 139.231 27.5938 138.632 27.5938C137.859 27.5938 137.194 27.7353 136.639 28.0185C136.084 28.3016 135.811 28.7045 135.822 29.2273C135.811 29.5975 135.969 29.9406 136.296 30.2564C136.634 30.5722 137.282 30.8172 138.24 30.9915L143.336 31.9062C145.907 32.3745 147.818 33.1641 149.07 34.2749C150.333 35.3748 150.97 36.8504 150.981 38.7017C150.97 40.4877 150.437 42.0395 149.38 43.3572C148.335 44.6641 146.903 45.6768 145.084 46.3956C143.277 47.1035 141.213 47.4574 138.893 47.4574C135.06 47.4574 132.06 46.6733 129.893 45.1051C127.736 43.5369 126.533 41.4678 126.282 38.8977H135.234C135.354 39.6927 135.746 40.308 136.41 40.7436C137.086 41.1683 137.935 41.3807 138.959 41.3807C139.786 41.3807 140.467 41.2391 141.001 40.956C141.545 40.6728 141.823 40.2699 141.834 39.7472C141.823 39.268 141.583 38.8868 141.115 38.6037C140.657 38.3205 139.939 38.0919 138.959 37.9176L134.515 37.1335C131.956 36.687 130.04 35.8376 128.765 34.5852C127.491 33.3329 126.86 31.7211 126.871 29.75C126.86 28.0076 127.317 26.532 128.243 25.3232C129.179 24.1035 130.513 23.1778 132.245 22.5462C133.987 21.9036 136.051 21.5824 138.436 21.5824C142.062 21.5824 144.921 22.3338 147.012 23.8366C149.114 25.3395 150.219 27.4195 150.328 30.0767ZM169.399 21.9091V28.4432H152.868V21.9091H169.399ZM156.07 15.8977H165.087V38.9304C165.087 39.2789 165.147 39.5729 165.266 39.8125C165.386 40.0412 165.571 40.2154 165.822 40.3352C166.072 40.4441 166.394 40.4986 166.786 40.4986C167.058 40.4986 167.374 40.4659 167.733 40.4006C168.103 40.3352 168.376 40.2808 168.55 40.2372L169.857 46.5753C169.454 46.6951 168.877 46.8421 168.125 47.0163C167.385 47.1906 166.503 47.3049 165.479 47.3594C163.41 47.4683 161.673 47.2559 160.268 46.7223C158.863 46.1778 157.807 45.3229 157.099 44.1577C156.391 42.9924 156.048 41.5331 156.07 39.7798V15.8977ZM191.195 13.5455V47H182.112V13.5455H191.195ZM210.593 21.9091V28.4432H194.061V21.9091H210.593ZM197.263 15.8977H206.28V38.9304C206.28 39.2789 206.34 39.5729 206.46 39.8125C206.58 40.0412 206.765 40.2154 207.015 40.3352C207.266 40.4441 207.587 40.4986 207.979 40.4986C208.251 40.4986 208.567 40.4659 208.926 40.4006C209.297 40.3352 209.569 40.2808 209.743 40.2372L211.05 46.5753C210.647 46.6951 210.07 46.8421 209.319 47.0163C208.578 47.1906 207.696 47.3049 206.672 47.3594C204.603 47.4683 202.866 47.2559 201.461 46.7223C200.056 46.1778 199 45.3229 198.292 44.1577C197.584 42.9924 197.241 41.5331 197.263 39.7798V15.8977Z" fill="#724CF9"/>
</svg>
