<svg width="70" height="79" viewBox="0 0 70 79" fill="none" xmlns="http://www.w3.org/2000/svg">
<path d="M49.814 39.265C54.2292 35.2414 57 29.4443 57 23C57 10.8497 47.1503 1 35 1C22.8497 1 13 10.8497 13 23C13 35.1503 22.8497 45 35 45C38.7887 45 42.3537 44.0423 45.4661 42.3558C48.6374 44.617 52.3247 44.1118 53.8158 43.5526L49.814 39.265Z" fill="white" stroke="#3F3D56" stroke-width="2"/>
<path d="M41.9024 19.5137C37.4644 19.4675 33.027 19.3881 28.5891 19.3279C27.1097 19.3078 25.6302 19.2901 24.1507 19.275C22.8759 19.2617 22.8726 17.2794 24.1507 17.2927C28.5887 17.3389 33.0261 17.4183 37.4639 17.4785C38.9434 17.4986 40.4229 17.5163 41.9024 17.5314C43.1772 17.5447 43.1805 19.527 41.9024 19.5137V19.5137Z" fill="#6C63FF"/>
<path d="M46.7643 24.1391L28.8277 23.9532L23.7265 23.9004C22.4517 23.8872 22.4484 21.9048 23.7265 21.9181L41.6631 22.1039L46.7643 22.1568C48.0392 22.17 48.0424 24.1523 46.7643 24.1391Z" fill="#6C63FF"/>
<path d="M46.7643 28.7644L28.8277 28.5786L23.7265 28.5257C22.4517 28.5125 22.4484 26.5302 23.7265 26.5434L41.6631 26.7293L46.7643 26.7821C48.0392 26.7953 48.0424 28.7777 46.7643 28.7644Z" fill="#6C63FF"/>
<path d="M1.03125 70V54H7.9375C9.125 54 10.1641 54.2344 11.0547 54.7031C11.9453 55.1719 12.638 55.8307 13.1328 56.6797C13.6276 57.5286 13.875 58.5208 13.875 59.6562C13.875 60.8021 13.6198 61.7943 13.1094 62.6328C12.6042 63.4714 11.8932 64.1172 10.9766 64.5703C10.0651 65.0234 9 65.25 7.78125 65.25H3.65625V61.875H6.90625C7.41667 61.875 7.85156 61.7865 8.21094 61.6094C8.57552 61.4271 8.85417 61.1693 9.04688 60.8359C9.24479 60.5026 9.34375 60.1094 9.34375 59.6562C9.34375 59.1979 9.24479 58.8073 9.04688 58.4844C8.85417 58.1562 8.57552 57.9062 8.21094 57.7344C7.85156 57.5573 7.41667 57.4687 6.90625 57.4687H5.375V70H1.03125ZM21.0547 70.2187C19.7526 70.2187 18.638 69.9609 17.7109 69.4453C16.7839 68.9245 16.0729 68.2005 15.5781 67.2734C15.0833 66.3411 14.8359 65.2604 14.8359 64.0313C14.8359 62.8021 15.0833 61.724 15.5781 60.7969C16.0729 59.8646 16.7839 59.1406 17.7109 58.625C18.638 58.1042 19.7526 57.8438 21.0547 57.8438C22.3568 57.8438 23.4714 58.1042 24.3984 58.625C25.3255 59.1406 26.0365 59.8646 26.5313 60.7969C27.026 61.724 27.2734 62.8021 27.2734 64.0313C27.2734 65.2604 27.026 66.3411 26.5313 67.2734C26.0365 68.2005 25.3255 68.9245 24.3984 69.4453C23.4714 69.9609 22.3568 70.2187 21.0547 70.2187ZM21.0859 67.0312C21.4505 67.0312 21.7656 66.9089 22.0313 66.6641C22.2969 66.4193 22.5026 66.0703 22.6484 65.6172C22.7943 65.1641 22.8672 64.625 22.8672 64C22.8672 63.3698 22.7943 62.8307 22.6484 62.3828C22.5026 61.9297 22.2969 61.5807 22.0313 61.3359C21.7656 61.0911 21.4505 60.9687 21.0859 60.9687C20.7005 60.9687 20.3698 61.0911 20.0938 61.3359C19.8177 61.5807 19.6068 61.9297 19.4609 62.3828C19.3151 62.8307 19.2422 63.3698 19.2422 64C19.2422 64.625 19.3151 65.1641 19.4609 65.6172C19.6068 66.0703 19.8177 66.4193 20.0938 66.6641C20.3698 66.9089 20.7005 67.0312 21.0859 67.0312ZM39.9922 61.9062H36.0234C36.0026 61.6615 35.9167 61.4505 35.7656 61.2734C35.6146 61.0964 35.4193 60.9609 35.1797 60.8672C34.9453 60.7682 34.6849 60.7188 34.3984 60.7188C34.0286 60.7188 33.7109 60.7865 33.4453 60.9219C33.1797 61.0573 33.0495 61.25 33.0547 61.5C33.0495 61.6771 33.125 61.8411 33.2813 61.9922C33.4427 62.1432 33.7526 62.2604 34.2109 62.3437L36.6484 62.7812C37.8776 63.0052 38.7917 63.3828 39.3906 63.9141C39.9948 64.4401 40.2995 65.1458 40.3047 66.0312C40.2995 66.8854 40.0443 67.6276 39.5391 68.2578C39.0391 68.8828 38.3542 69.3672 37.4844 69.7109C36.6198 70.0495 35.6328 70.2187 34.5234 70.2187C32.6901 70.2187 31.2552 69.8437 30.2188 69.0937C29.1875 68.3437 28.612 67.3542 28.4922 66.125H32.7734C32.8307 66.5052 33.0182 66.7995 33.3359 67.0078C33.6589 67.2109 34.0651 67.3125 34.5547 67.3125C34.9505 67.3125 35.276 67.2448 35.5313 67.1094C35.7917 66.974 35.9245 66.7813 35.9297 66.5313C35.9245 66.3021 35.8099 66.1198 35.5859 65.9844C35.3672 65.849 35.0234 65.7396 34.5547 65.6562L32.4297 65.2812C31.2057 65.0677 30.2891 64.6615 29.6797 64.0625C29.0703 63.4635 28.7682 62.6927 28.7734 61.75C28.7682 60.9167 28.987 60.2109 29.4297 59.6328C29.8776 59.0495 30.5156 58.6068 31.3437 58.3047C32.1771 57.9974 33.1641 57.8438 34.3047 57.8438C36.0391 57.8438 37.4063 58.2031 38.4063 58.9219C39.4115 59.6406 39.9401 60.6354 39.9922 61.9062ZM49.1133 58V61.125H41.207V58H49.1133ZM42.7383 55.125H47.0508V66.1406C47.0508 66.3073 47.0794 66.4479 47.1367 66.5625C47.194 66.6719 47.2826 66.7552 47.4023 66.8125C47.5221 66.8646 47.6758 66.8906 47.8633 66.8906C47.9935 66.8906 48.1445 66.875 48.3164 66.8438C48.4935 66.8125 48.6237 66.7865 48.707 66.7656L49.332 69.7969C49.1393 69.8542 48.8633 69.9245 48.5039 70.0078C48.1497 70.0911 47.7279 70.1458 47.2383 70.1719C46.2487 70.224 45.418 70.1224 44.7461 69.8672C44.0742 69.6068 43.569 69.1979 43.2305 68.6406C42.8919 68.0833 42.7279 67.3854 42.7383 66.5469V55.125ZM59.5371 54V70H55.1934V54H59.5371ZM68.8145 58V61.125H60.9082V58H68.8145ZM62.4395 55.125H66.752V66.1406C66.752 66.3073 66.7806 66.4479 66.8379 66.5625C66.8952 66.6719 66.9837 66.7552 67.1035 66.8125C67.2233 66.8646 67.377 66.8906 67.5645 66.8906C67.6947 66.8906 67.8457 66.875 68.0176 66.8438C68.1947 66.8125 68.3249 66.7865 68.4082 66.7656L69.0332 69.7969C68.8405 69.8542 68.5645 69.9245 68.2051 70.0078C67.8509 70.0911 67.429 70.1458 66.9395 70.1719C65.9499 70.224 65.1191 70.1224 64.4473 69.8672C63.7754 69.6068 63.2702 69.1979 62.9316 68.6406C62.5931 68.0833 62.429 67.3854 62.4395 66.5469V55.125Z" fill="#724CF9"/>
</svg>
